<?xml version="1.0" encoding="utf-8"?>
<!-- Generator: Adobe Illustrator 22.1.0, SVG Export Plug-In . SVG Version: 6.00 Build 0)  -->
<svg version="1.1" id="Capa_1" xmlns="http://www.w3.org/2000/svg" xmlns:xlink="http://www.w3.org/1999/xlink" x="0px" y="0px"
	 viewBox="0 0 512 512" style="enable-background:new 0 0 512 512;" xml:space="preserve">
<path fill="#111" d="M44,236.1l-0.6,3.4c-0.8,4.8,0.7,9.7,4.2,13.1c45.1,45.1,53.7,114.8,20.8,169.7c-6.1,6.1-4.9,15.4,0.3,20.9
	c6.5,7,15.8,6,21.2,0.6c54.7-32.8,124.3-24.2,169.4,20.9c3.4,3.5,8.5,4.9,13.1,4.2l3.4-0.6c61.4-10.5,126.6,4.8,177.3,40.8
	c5.9,4.2,14.1,3.6,19.3-1.6c52.6-52.6,52.6-138.9,0-191.5c-3.7-3.7-9.2-5.2-14.3-3.9c-42.6,10.8-89,0.5-124.1-28.2l52.5-52.5
	c3.7-3.7,5.2-9,4-14c-1.2-5.1-4.9-9.1-9.9-10.8l-56.3-19.1l-18.6-56.3c-1.6-4.9-5.7-8.7-10.8-9.9c-5-1.2-10.4,0.3-14.1,4L228.4,178
	c-28.2-33.9-39-81-28.1-124.2c1.3-5.1-0.2-10.5-3.9-14.3c-52.6-52.6-139.3-52.7-191.9,0c-5.2,5.2-5.9,13.3-1.6,19.3
	C38.9,109.5,54.5,174.7,44,236.1L44,236.1z"/>
</svg>
